<?xml version="1.0" standalone="no"?>
<!DOCTYPE svg PUBLIC "-//W3C//DTD SVG 20010904//EN"
 "http://www.w3.org/TR/2001/REC-SVG-20010904/DTD/svg10.dtd">
<svg version="1.0" xmlns="http://www.w3.org/2000/svg"
 width="200.000000pt" height="200.000000pt" viewBox="0 0 200.000000 200.000000"
 preserveAspectRatio="xMidYMid meet">
<metadata>
Created by potrace 1.11, written by Peter Selinger 2001-2013
</metadata>
<g transform="translate(0.000000,200.000000) scale(0.100000,-0.100000)"
fill="#000000" stroke="none">
<path d="M515 1506 c-115 -36 -187 -113 -203 -215 -4 -20 -6 -155 -6 -301 -1
-238 1 -270 19 -318 24 -67 73 -117 144 -151 50 -23 68 -26 161 -26 94 1 112
4 168 30 76 34 134 95 152 160 14 49 9 130 -9 148 -5 5 -34 12 -63 15 -65 5
-94 -15 -102 -71 -14 -91 -67 -133 -158 -125 -60 6 -95 30 -115 76 -24 55 -23
514 1 560 31 60 103 84 184 63 49 -14 78 -51 88 -110 9 -57 37 -75 106 -69 68
7 81 25 75 103 -2 34 -11 74 -20 91 -21 40 -74 92 -117 114 -76 39 -225 51
-305 26z"/>
<path d="M1316 1499 c-77 -26 -113 -54 -141 -109 -46 -91 -37 -211 22 -280 38
-44 75 -66 175 -104 194 -73 250 -137 234 -269 -14 -106 -89 -158 -221 -153
-81 3 -122 21 -181 78 l-42 40 -21 -21 c-27 -27 -27 -51 0 -85 54 -69 155
-106 277 -103 73 2 96 7 145 30 93 46 137 125 138 247 1 170 -60 238 -291 325
-92 35 -138 67 -156 111 -25 60 -14 141 24 171 66 54 172 66 289 33 75 -21 97
-19 107 7 16 40 -23 71 -112 91 -71 16 -183 12 -246 -9z"/>
</g>
</svg>
